<svg width="96" height="96" viewBox="0 0 32 32" fill="none" xmlns="http://www.w3.org/2000/svg">
<rect width="32" height="32" rx="6" fill="#201c45"/>
<g transform="translate(0.5, 4.35) scale(1.02)">
<path fill-rule="evenodd" clip-rule="evenodd" d="M7.41639 0.692871C6.28224 0.692871 5.2293 1.28125 4.6349 2.24715L0.489634 8.98321C-0.849452 11.1592 0.716088 13.9609 3.27112 13.9609C8.34706 13.9609 21.2068 10.5928 27.8408 7.65853L31.3616 1.93728C31.6963 1.39328 31.3049 0.692871 30.6662 0.692871H7.41639ZM19.3292 21.6548C18.6977 22.6811 17.579 23.3063 16.374 23.3064L8.94399 23.3069C6.22927 23.307 4.5657 20.3304 5.98833 18.0183C6.05611 17.9998 6.12399 17.9813 6.19196 17.9628C11.6621 16.4719 17.7478 14.8132 26.8263 9.47029L19.3292 21.6548Z" fill="#cbb7fb"/>
</g>
</svg>
