<svg width="97" height="24" viewBox="0 0 97 24" fill="none" xmlns="http://www.w3.org/2000/svg">
<path fill-rule="evenodd" clip-rule="evenodd" d="M7.41639 0.692871C6.28224 0.692871 5.2293 1.28125 4.6349 2.24715L0.489634 8.98321C-0.849452 11.1592 0.716088 13.9609 3.27112 13.9609C8.34706 13.9609 21.2068 10.5928 27.8408 7.65853L31.3616 1.93728C31.6963 1.39328 31.3049 0.692871 30.6662 0.692871H7.41639ZM19.3292 21.6548C18.6977 22.6811 17.579 23.3063 16.374 23.3064L8.94399 23.3069C6.22927 23.307 4.5657 20.3304 5.98833 18.0183C6.05611 17.9998 6.12399 17.9813 6.19196 17.9628C11.6621 16.4719 17.7478 14.8132 26.8263 9.47029L19.3292 21.6548Z" fill="#cbb7fb"/>
<path d="M51.7867 20.1148C50.6145 20.7253 49.3913 21.1662 48.1172 21.4375C46.8431 21.7089 45.5436 21.8446 44.2185 21.8446C42.8085 21.8446 41.5089 21.6241 40.3198 21.1832C39.1306 20.7422 38.1028 20.1148 37.2364 19.3007C36.37 18.4697 35.6905 17.4692 35.1979 16.299C34.7222 15.1288 34.4844 13.823 34.4844 12.3815C34.4844 10.94 34.7222 9.63415 35.1979 8.46399C35.6905 7.29382 36.37 6.30173 37.2364 5.4877C38.1028 4.65671 39.1306 4.02075 40.3198 3.57982C41.5089 3.13889 42.8085 2.91843 44.2185 2.91843C45.6625 2.91843 46.9875 3.09649 48.1937 3.45263C49.4168 3.79181 50.4871 4.38537 51.4044 5.23331L48.6014 8.28592C48.0578 7.72627 47.4462 7.3023 46.7667 7.014C46.0872 6.7257 45.2378 6.58155 44.2185 6.58155C43.3691 6.58155 42.5961 6.7257 41.8996 7.014C41.2201 7.3023 40.634 7.70931 40.1414 8.23504C39.6487 8.74381 39.2665 9.35433 38.9947 10.0666C38.7399 10.7789 38.6125 11.5505 38.6125 12.3815C38.6125 13.2294 38.7399 14.0095 38.9947 14.7218C39.2665 15.4171 39.6487 16.0277 40.1414 16.5534C40.634 17.0621 41.2201 17.4607 41.8996 17.749C42.5961 18.0373 43.3691 18.1814 44.2185 18.1814C45.0849 18.1814 45.8324 18.0882 46.4609 17.9016C47.0895 17.6981 47.5906 17.4946 47.9644 17.2911V14.3657H44.7281V10.7026H51.7867V20.1148Z" fill="#1b1938"/>
<path d="M54.8527 2.15527H58.675V21.3867H54.8527V2.15527Z" fill="#1b1938"/>
<path d="M61.472 9.02363H65.2943V21.3867H61.472V9.02363ZM61.1662 5.13156C61.1662 4.52104 61.3786 4.00379 61.8033 3.57982C62.245 3.13889 62.7716 2.91843 63.3832 2.91843C63.9947 2.91843 64.5129 3.13889 64.9376 3.57982C65.3792 4.00379 65.6001 4.52104 65.6001 5.13156C65.6001 5.74208 65.3792 6.26781 64.9376 6.70874C64.5129 7.13271 63.9947 7.3447 63.3832 7.3447C62.7716 7.3447 62.245 7.13271 61.8033 6.70874C61.3786 6.26781 61.1662 5.74208 61.1662 5.13156Z" fill="#1b1938"/>
<path d="M81.0362 21.3867H77.5197V19.7586H77.4687C77.3158 19.9791 77.112 20.208 76.8572 20.4455C76.6193 20.6659 76.3305 20.8694 75.9908 21.056C75.668 21.2425 75.3028 21.3951 74.895 21.5139C74.5043 21.6326 74.0966 21.6919 73.6719 21.6919C72.7546 21.6919 71.9221 21.5393 71.1747 21.234C70.4272 20.9118 69.7817 20.4709 69.238 19.9112C68.7114 19.3346 68.3037 18.6563 68.0149 17.8762C67.7261 17.0961 67.5817 16.2396 67.5817 15.3069C67.5817 14.442 67.7091 13.6195 67.9639 12.8394C68.2357 12.0423 68.6095 11.3385 69.0852 10.728C69.5778 10.1175 70.1724 9.63415 70.8689 9.27801C71.5654 8.90492 72.3553 8.71837 73.2387 8.71837C74.0372 8.71837 74.7761 8.84556 75.4557 9.09994C76.1522 9.33737 76.7213 9.75286 77.1629 10.3464H77.2139V2.15527H81.0362V21.3867ZM77.5197 15.2051C77.5197 14.2724 77.2479 13.5177 76.7043 12.9411C76.1776 12.3645 75.4302 12.0762 74.4619 12.0762C73.4935 12.0762 72.7376 12.3645 72.194 12.9411C71.6673 13.5177 71.404 14.2724 71.404 15.2051C71.404 16.1379 71.6673 16.8926 72.194 17.4692C72.7376 18.0458 73.4935 18.3341 74.4619 18.3341C75.4302 18.3341 76.1776 18.0458 76.7043 17.4692C77.2479 16.8926 77.5197 16.1379 77.5197 15.2051Z" fill="#1b1938"/>
<path d="M95.8128 19.2498C95.2012 20.03 94.4283 20.632 93.4939 21.056C92.5596 21.4799 91.5913 21.6919 90.589 21.6919C89.6376 21.6919 88.7373 21.5393 87.8879 21.234C87.0555 20.9288 86.325 20.4963 85.6964 19.9367C85.0849 19.3601 84.6007 18.6732 84.244 17.8762C83.8872 17.0791 83.7088 16.1888 83.7088 15.2051C83.7088 14.2215 83.8872 13.3312 84.244 12.5341C84.6007 11.7371 85.0849 11.0587 85.6964 10.4991C86.325 9.92245 87.0555 9.48152 87.8879 9.17626C88.7373 8.871 89.6376 8.71837 90.589 8.71837C91.4723 8.71837 92.2708 8.871 92.9843 9.17626C93.7148 9.48152 94.3263 9.92245 94.819 10.4991C95.3286 11.0587 95.7193 11.7371 95.9912 12.5341C96.263 13.3312 96.3989 14.2215 96.3989 15.2051V16.4008H87.5311C87.684 17.13 88.0153 17.7151 88.5249 18.156C89.0346 18.58 89.6631 18.792 90.4106 18.792C91.0392 18.792 91.5658 18.6563 91.9905 18.3849C92.4322 18.0966 92.8144 17.732 93.1372 17.2911L95.8128 19.2498ZM92.5766 13.806C92.5936 13.1616 92.3812 12.6104 91.9395 12.1525C91.4978 11.6947 90.9287 11.4657 90.2322 11.4657C89.8075 11.4657 89.4338 11.5335 89.111 11.6692C88.7882 11.8049 88.5079 11.983 88.2701 12.2034C88.0493 12.4069 87.8709 12.6528 87.735 12.9411C87.6161 13.2125 87.5481 13.5008 87.5311 13.806H92.5766Z" fill="#1b1938"/>
</svg>
